HIERARCHY
ROOT Hips
{
 OFFSET 0.000000 0.000000 0.000000
 CHANNELS 6 Xposition Yposition Zposition Yrotation Xrotation Zrotation
 JOINT Chest
 {
  OFFSET 0.000000 9.585900 0.002600
  CHANNELS 3 Yrotation Xrotation Zrotation
  JOINT Chest2
  {
   OFFSET 0.000000 9.601200 -0.005300
   CHANNELS 3 Yrotation Xrotation Zrotation
   JOINT Chest3
   {
    OFFSET 0.000000 9.561800 0.000000
    CHANNELS 3 Yrotation Xrotation Zrotation
    JOINT Chest4
    {
     OFFSET 0.000000 9.552100 0.000000
     CHANNELS 3 Yrotation Xrotation Zrotation
     JOINT Neck
     {
      OFFSET 0.000000 14.453000 0.000000
      CHANNELS 3 Yrotation Xrotation Zrotation
      JOINT Head
      {
       OFFSET 0.000000 8.936500 -0.011300
       CHANNELS 3 Yrotation Xrotation Zrotation
       End Site
       {
        OFFSET 0.000000 17.073600 -0.006000
       }
      }
     }
     JOINT RightCollar
     {
      OFFSET -2.921100 9.558500 0.000000
      CHANNELS 3 Yrotation Xrotation Zrotation
      JOINT RightShoulder
      {
       OFFSET -13.519700 0.000000 0.000000
       CHANNELS 3 Yrotation Xrotation Zrotation
       JOINT RightElbow
       {
        OFFSET 0.000000 -29.696600 0.000000
        CHANNELS 3 Yrotation Xrotation Zrotation
        JOINT RightWrist
        {
         OFFSET 0.000000 -24.004700 0.000000
         CHANNELS 3 Yrotation Xrotation Zrotation
         End Site
         {
          OFFSET 0.000000 -17.728500 0.000000
         }
        }
       }
      }
     }
     JOINT LeftCollar
     {
      OFFSET 2.921100 9.558500 0.000000
      CHANNELS 3 Yrotation Xrotation Zrotation
      JOINT LeftShoulder
      {
       OFFSET 13.519700 0.000000 0.000000
       CHANNELS 3 Yrotation Xrotation Zrotation
       JOINT LeftElbow
       {
        OFFSET 0.000000 -29.696600 0.000000
        CHANNELS 3 Yrotation Xrotation Zrotation
        JOINT LeftWrist
        {
         OFFSET 0.000000 -24.004700 0.000000
         CHANNELS 3 Yrotation Xrotation Zrotation
         End Site
         {
          OFFSET 0.000000 -17.728500 0.000000
         }
        }
       }
      }
     }
    }
   }
  }
 }
 JOINT RightHip
 {
  OFFSET -7.771700 -0.012900 -0.001300
  CHANNELS 3 Yrotation Xrotation Zrotation
  JOINT RightKnee
  {
   OFFSET 0.000000 -40.869800 0.001200
   CHANNELS 3 Yrotation Xrotation Zrotation
   JOINT RightAnkle
   {
    OFFSET 0.000000 -39.717900 0.002100
    CHANNELS 3 Yrotation Xrotation Zrotation
    JOINT RightToe
    {
     OFFSET 0.000000 -4.965400 11.033500
     CHANNELS 3 Yrotation Xrotation Zrotation
     End Site
     {
      OFFSET 0.000000 -1.423100 5.872300
     }
    }
   }
  }
 }
 JOINT LeftHip
 {
  OFFSET 7.771700 -0.012900 -0.001300
  CHANNELS 3 Yrotation Xrotation Zrotation
  JOINT LeftKnee
  {
   OFFSET 0.000000 -40.869800 0.001200
   CHANNELS 3 Yrotation Xrotation Zrotation
   JOINT LeftAnkle
   {
    OFFSET 0.000000 -39.717900 0.002100
    CHANNELS 3 Yrotation Xrotation Zrotation
    JOINT LeftToe
    {
     OFFSET 0.000000 -4.965400 11.033500
     CHANNELS 3 Yrotation Xrotation Zrotation
     End Site
     {
      OFFSET 0.000000 -1.423100 5.872300
     }
    }
   }
  }
 }
}
MOTION
Frames: 15
Frame Time: 0.008333
-55.240903 43.766302 20.457358 172.854177 -21.198529 -1.093845 0.164728 18.264037 2.789389 -0.037152 2.090505 0.370334 -0.043731 3.454148 0.614697 0.069973 15.903030 2.854685 0.257693 14.223550 -5.034615 1.455187 -10.708365 -5.433084 10.487490 0.623758 -5.733663 -5.943621 -6.487863 -2.667293 -90.394538 -87.506692 103.081483 -6.673282 7.095826 -50.134536 -15.100068 -1.878601 -5.334074 15.018586 -2.910623 2.007826 142.256963 -78.688383 -157.825768 17.917814 16.171513 37.047011 -3.484026 -70.366377 14.536525 -144.815079 65.395307 -143.182069 -10.297947 -26.108067 8.040812 0.177482 -0.860551 0.098519 3.010582 -57.966091 0.417500 174.643626 60.594493 175.343308 -0.696144 -40.316782 1.377754 0.080058 0.234012 0.093837
-55.244772 43.766166 20.458791 172.851037 -21.198049 -1.088188 0.178333 18.261468 2.791486 -0.025180 2.079968 0.372181 -0.064293 3.464694 0.611467 0.075164 15.897137 2.856800 0.264656 14.216224 -5.035082 1.463909 -10.727718 -5.434597 10.491208 0.626086 -5.729375 -5.964434 -6.469495 -2.624863 -90.540878 -87.505914 103.262013 -6.642323 7.104164 -50.121054 -15.073216 -1.883181 -5.319835 15.064019 -2.909687 1.992981 141.201719 -78.542161 -156.923113 17.935401 16.150631 36.790580 -3.441929 -70.368424 14.492402 -144.839349 65.409558 -143.194217 -10.301936 -26.079581 8.026318 0.190161 -0.852850 0.100473 3.030864 -57.966928 0.415719 174.658476 60.596143 175.346509 -0.705230 -40.317338 1.394241 0.070809 0.235003 0.094374
-55.246778 43.765384 20.459987 172.854932 -21.197524 -1.097090 0.187977 18.252857 2.803533 -0.023965 2.078698 0.373508 -0.064754 3.461307 0.611119 0.070696 15.900015 2.858521 0.271802 14.208928 -5.034175 1.465593 -10.720896 -5.432534 10.495255 0.629372 -5.724306 -5.977896 -6.459301 -2.614333 -90.503154 -87.476644 103.263890 -6.665588 7.104291 -50.123784 -15.054833 -1.883508 -5.311923 15.110111 -2.926158 1.983372 139.896401 -78.374426 -155.785970 17.967743 16.140393 36.572201 -3.452138 -70.368451 14.497930 -144.873521 65.425377 -143.219311 -10.307247 -26.053323 8.008268 0.199823 -0.845300 0.103444 3.055432 -57.972819 0.422230 174.682084 60.593560 175.369390 -0.724210 -40.315284 1.421484 0.067382 0.231285 0.088088
-55.246113 43.764302 20.460166 172.863698 -21.202792 -1.123345 0.199024 18.250357 2.833719 -0.022321 2.076771 0.373072 -0.064949 3.461486 0.613233 0.099238 15.887843 2.872870 0.246795 14.218371 -5.036180 1.466591 -10.715044 -5.432577 10.480245 0.639037 -5.719355 -6.008967 -6.430118 -2.573318 -90.767261 -87.481966 103.579063 -6.680506 7.097880 -50.171591 -15.087843 -1.869661 -5.319080 15.160213 -2.960897 1.981051 138.464682 -78.186653 -154.530371 18.021284 16.143581 36.397775 -3.509760 -70.361620 14.549035 -144.890946 65.432793 -143.224980 -10.301236 -26.026902 7.979824 0.199344 -0.844226 0.112390 3.089155 -57.977319 0.438097 174.711119 60.586037 175.416365 -0.759754 -40.311267 1.457169 0.074882 0.222939 0.078794
-55.247250 43.763259 20.457754 172.871916 -21.220548 -1.136753 0.221670 18.247965 2.854918 -0.033705 2.087317 0.373361 -0.065120 3.459543 0.613754 0.102087 15.892503 2.879137 0.249180 14.215638 -5.035903 1.456678 -10.707075 -5.431185 10.528529 0.626085 -5.716143 -6.046450 -6.373852 -2.486514 -91.369137 -87.529853 104.201786 -6.652235 7.093837 -50.220550 -15.069674 -1.880706 -5.311728 15.151569 -2.961755 1.974620 137.098705 -77.968496 -153.321594 18.095413 16.159805 36.264868 -3.530039 -70.341700 14.559351 -144.911340 65.436581 -143.236049 -10.301785 -26.015342 7.964370 0.200310 -0.836386 0.115456 3.094066 -57.962799 0.454778 174.740242 60.580558 175.443325 -0.768761 -40.313503 1.477430 0.070623 0.219930 0.072979
-55.251313 43.761743 20.454006 172.887286 -21.242240 -1.134069 0.221557 18.260800 2.854567 -0.032982 2.088171 0.374229 -0.056973 3.457164 0.615840 0.081681 15.900650 2.877907 0.266985 14.216561 -5.033925 1.444567 -10.703873 -5.430616 10.557605 0.620241 -5.716853 -6.041609 -6.346719 -2.432747 -91.569149 -87.542243 104.410081 -6.665897 7.074959 -50.268229 -15.023652 -1.906993 -5.304221 15.122233 -2.951476 1.974612 135.750910 -77.741303 -152.134465 18.180755 16.182393 36.173864 -3.508116 -70.319258 14.515033 -144.926942 65.428162 -143.248302 -10.294856 -26.023195 7.963009 0.199848 -0.822622 0.111852 3.101832 -57.941078 0.447350 174.767639 60.577636 175.456863 -0.773978 -40.316666 1.500819 0.062185 0.219378 0.063674
-55.254680 43.758775 20.452376 172.894711 -21.249864 -1.133869 0.222563 18.263950 2.856447 -0.023524 2.084281 0.376890 -0.065787 3.462457 0.614089 0.097306 15.900158 2.886031 0.265042 14.221494 -5.034292 1.442569 -10.698510 -5.430368 10.566985 0.614417 -5.721272 -6.061326 -6.331079 -2.418100 -91.396086 -87.513111 104.271701 -6.666153 7.062236 -50.300688 -15.037778 -1.914977 -5.305990 15.136239 -2.992771 1.981087 134.357738 -77.529445 -150.912136 18.272294 16.201611 36.129590 -3.521138 -70.310458 14.514091 -144.934531 65.424489 -143.261560 -10.295399 -26.034728 7.969410 0.201278 -0.809135 0.105088 3.135672 -57.939374 0.435178 174.789331 60.571143 175.480539 -0.802444 -40.312641 1.522431 0.067517 0.212962 0.075428
-55.258076 43.756160 20.448346 172.914582 -21.271797 -1.136090 0.211615 18.281250 2.856674 -0.014146 2.079721 0.378499 -0.064190 3.465012 0.617279 0.104489 15.902779 2.892519 0.262285 14.230985 -5.035174 1.465970 -10.672214 -5.430845 10.572900 0.607400 -5.727796 -5.974590 -6.285412 -2.324169 -91.885071 -87.568623 104.690645 -6.660330 7.062285 -50.306770 -15.055287 -1.923231 -5.310161 15.139556 -3.038578 1.992454 133.037196 -77.321302 -149.755903 18.362762 16.212215 36.127316 -3.528245 -70.288390 14.500101 -144.945981 65.411794 -143.273154 -10.312842 -26.050665 7.984202 0.217844 -0.797957 0.098764 3.157221 -57.921585 0.416052 174.799980 60.564468 175.498040 -0.829560 -40.310185 1.538049 0.075967 0.208636 0.077804
-55.262630 43.752961 20.444596 172.927142 -21.291048 -1.129097 0.214660 18.289815 2.852431 -0.014802 2.080189 0.381311 -0.062441 3.467116 0.616431 0.133577 15.901520 2.906409 0.239114 14.243927 -5.035314 1.465847 -10.658157 -5.424367 10.558538 0.602327 -5.731208 -5.917179 -6.254574 -2.259226 -91.969382 -87.585847 104.735434 -6.668621 7.084242 -50.196971 -15.092765 -1.936084 -5.306243 15.124562 -3.133764 2.027497 131.572010 -77.143824 -148.426753 18.446990 16.214281 36.146204 -3.530047 -70.272144 14.482586 -144.959934 65.401235 -143.295988 -10.321014 -26.057450 7.993359 0.198930 -0.792483 0.093035 3.193352 -57.903626 0.392634 174.815787 60.559749 175.510578 -0.858024 -40.313466 1.563636 0.076535 0.209365 0.069863
-55.267342 43.749558 20.440823 172.943890 -21.310671 -1.122893 0.212113 18.297443 2.849426 -0.016019 2.083835 0.382586 -0.059371 3.466828 0.616336 0.133525 15.906632 2.912073 0.265898 14.266749 -5.025647 1.441360 -10.651248 -5.420803 10.555278 0.598872 -5.735730 -5.867871 -6.239924 -2.213412 -91.829085 -87.580028 104.580649 -6.672397 7.100462 -50.119562 -15.102483 -1.955738 -5.303362 15.108897 -3.140151 2.035939 130.639799 -76.948178 -147.622361 18.524569 16.211764 36.173279 -3.539782 -70.255379 14.466629 -144.961521 65.384663 -143.309250 -10.317953 -26.063433 8.002280 0.209491 -0.796251 0.089735 3.232928 -57.888475 0.367155 174.837874 60.552768 175.531753 -0.894574 -40.308917 1.587157 0.083436 0.201943 0.087053
-55.269601 43.745440 20.439383 172.947746 -21.318594 -1.128399 0.237817 18.289053 2.872395 -0.030957 2.093320 0.377585 -0.055780 3.465099 0.619399 0.127348 15.912947 2.912686 0.263009 14.273652 -5.025322 1.446755 -10.636018 -5.417153 10.558021 0.592457 -5.739867 -5.824952 -6.231177 -2.174838 -91.502962 -87.565646 104.252944 -6.668854 7.110340 -50.074153 -15.119134 -1.976053 -5.291498 15.104978 -3.147236 2.037031 129.882998 -76.773728 -146.974464 18.592257 16.209561 36.210493 -3.556792 -70.247416 14.479172 -144.957020 65.380266 -143.308718 -10.306230 -26.073745 8.002155 0.206323 -0.788756 0.089503 3.248222 -57.884518 0.377285 174.857893 60.545906 175.545996 -0.919023 -40.315725 1.617245 0.080423 0.205251 0.080482
-55.273623 43.741269 20.438352 172.946869 -21.323704 -1.121892 0.245936 18.287221 2.871695 -0.030858 2.094058 0.378051 -0.043515 3.463559 0.625078 0.107036 15.920073 2.907297 0.267987 14.281643 -5.022404 1.442796 -10.635776 -5.417507 10.579224 0.582137 -5.744527 -5.798304 -6.227657 -2.140669 -90.899520 -87.541402 103.663534 -6.671821 7.114315 -50.050024 -15.132416 -2.005108 -5.263502 15.095350 -3.170537 2.041225 129.169305 -76.628320 -146.339256 18.644824 16.211351 36.256751 -3.554876 -70.245484 14.475384 -144.952966 65.378240 -143.316853 -10.302456 -26.073196 8.007685 0.204259 -0.786332 0.087444 3.277381 -57.881658 0.368893 174.878942 60.541086 175.556835 -0.934884 -40.320619 1.644387 0.073481 0.208533 0.062760
-55.276745 43.737614 20.437235 172.950829 -21.331500 -1.121976 0.249167 18.286842 2.875119 -0.034320 2.098604 0.376878 -0.041776 3.462641 0.626180 0.113831 15.921033 2.911121 0.270332 14.301758 -5.017687 1.443834 -10.614511 -5.412844 10.582385 0.570714 -5.745426 -5.764679 -6.228828 -2.119568 -90.076877 -87.507264 102.866481 -6.646844 7.107206 -50.081895 -15.148216 -2.010273 -5.259159 15.043819 -3.279760 2.093765 128.357232 -76.519287 -145.549166 18.680921 16.219275 36.301747 -3.553641 -70.239756 14.473079 -144.949567 65.376174 -143.321634 -10.299161 -26.069444 8.011289 0.200661 -0.787059 0.089158 3.294256 -57.877868 0.358748 174.882951 60.535503 175.565316 -0.950294 -40.321983 1.648057 0.079193 0.208641 0.065206
-55.278360 43.734896 20.435493 172.960695 -21.346205 -1.132014 0.245845 18.297352 2.884412 -0.034586 2.099158 0.376806 -0.043472 3.464753 0.625762 0.126728 15.910030 2.921679 0.275585 14.351388 -5.008267 1.444484 -10.573690 -5.405824 10.590423 0.573796 -5.748409 -5.739348 -6.236129 -2.107695 -89.424462 -87.495472 102.206104 -6.698728 7.094967 -50.040755 -15.168124 -2.008710 -5.261537 15.024319 -3.312745 2.110811 128.018748 -76.436597 -145.236282 18.716205 16.222676 36.321261 -3.564323 -70.228717 14.480040 -144.956094 65.371083 -143.328841 -10.282821 -26.056042 7.996508 0.191148 -0.801539 0.102023 3.292458 -57.866874 0.372546 174.900491 60.530402 175.580659 -0.963755 -40.326143 1.654313 0.077851 0.210135 0.075030
-55.282359 43.732246 20.435027 172.975287 -21.352825 -1.129780 0.233556 18.299765 2.879276 -0.030687 2.094939 0.378805 -0.043355 3.464965 0.626319 0.120088 15.910975 2.922312 0.277777 14.371184 -5.005323 1.450972 -10.531648 -5.398058 10.610229 0.568248 -5.746915 -5.712909 -6.240556 -2.104113 -88.506355 -87.436857 101.340144 -6.708226 7.062324 -50.072151 -15.185706 -2.024146 -5.253555 15.032537 -3.303915 2.111060 127.921783 -76.411504 -145.145202 18.759097 16.210007 36.304587 -3.544289 -70.225417 14.449924 -144.958688 65.366800 -143.328790 -10.300872 -26.050679 7.996316 0.221402 -0.799673 0.110446 3.307031 -57.863577 0.365082 174.898913 60.529936 175.570679 -0.995679 -40.324972 1.685807 0.073846 0.212479 0.070525
